<svg width="366" height="323" viewBox="0 0 366 323" fill="none" xmlns="http://www.w3.org/2000/svg">
<rect width="366" height="323" fill="#FEFEFE"/>
<g filter="url(#filter0_i_0_1)">
<ellipse cx="183" cy="161.5" rx="183" ry="161.5" fill="#1ABBDE"/>
</g>
<g filter="url(#filter1_i_0_1)">
<ellipse cx="183" cy="157" rx="119" ry="111" fill="white"/>
</g>
<g filter="url(#filter2_i_0_1)">
<path d="M183 54L206.349 127.935H281.91L220.78 173.63L244.13 247.565L183 201.87L121.87 247.565L145.22 173.63L84.0901 127.935H159.651L183 54Z" fill="#1ABBDE" fill-opacity="0.85"/>
</g>
<g filter="url(#filter3_d_0_1)">
<path d="M165.922 174.25L169.578 173.594C169.578 177.031 171.359 179.844 174.922 182.031C177.047 183.281 179.109 183.906 181.109 183.906V187.469C175.922 187.469 171.766 185.5 168.641 181.562C166.828 179.188 165.922 176.75 165.922 174.25ZM166.297 152.781C166.297 147.094 168.797 142.969 173.797 140.406C176.109 139.156 178.484 138.531 180.922 138.531V142.094C178.109 142.094 175.516 143.281 173.141 145.656C171.078 147.781 170.047 150.156 170.047 152.781C170.047 155.094 171.641 156.875 174.828 158.125C175.891 158.5 180.234 159.594 187.859 161.406C188.859 161.656 189.766 161.875 190.578 162.062C197.516 163.938 201.016 167.469 201.078 172.656C201.078 178.094 198.797 182.188 194.234 184.938C191.484 186.625 188.391 187.469 184.953 187.469V184C188.453 184 191.516 182.75 194.141 180.25C196.266 178.062 197.328 175.531 197.328 172.656C197.328 169.719 194.766 167.438 189.641 165.812C188.828 165.562 184.547 164.531 176.797 162.719C176.359 162.594 175.953 162.5 175.578 162.438C169.453 160.938 166.359 157.719 166.297 152.781ZM184.859 142.188V138.531C190.047 138.531 194.203 140.469 197.328 144.344C199.266 146.781 200.234 149.312 200.234 151.938L196.578 152.5C196.578 148.688 194.484 145.719 190.297 143.594C188.297 142.656 186.484 142.188 184.859 142.188Z" fill="black"/>
<g filter="url(#filter4_i_0_1)">
<path d="M154.312 198V146.531H155.156L158.062 153.75V198H154.312ZM154.312 134.438V132.375H157.781L182.531 192.469L202.781 146.719H203.719V154.031L184.312 198H180.75L154.312 134.438ZM207.938 198V132.375H211.688V198H207.938Z" fill="black"/>
</g>
</g>
<defs>
<filter id="filter0_i_0_1" x="0" y="0" width="366" height="327" filterUnits="userSpaceOnUse" color-interpolation-filters="sRGB">
<feFlood flood-opacity="0" result="BackgroundImageFix"/>
<feBlend mode="normal" in="SourceGraphic" in2="BackgroundImageFix" result="shape"/>
<feColorMatrix in="SourceAlpha" type="matrix" values="0 0 0 0 0 0 0 0 0 0 0 0 0 0 0 0 0 0 127 0" result="hardAlpha"/>
<feOffset dy="4"/>
<feGaussianBlur stdDeviation="2"/>
<feComposite in2="hardAlpha" operator="arithmetic" k2="-1" k3="1"/>
<feColorMatrix type="matrix" values="0 0 0 0 0 0 0 0 0 0 0 0 0 0 0 0 0 0 0.25 0"/>
<feBlend mode="normal" in2="shape" result="effect1_innerShadow_0_1"/>
</filter>
<filter id="filter1_i_0_1" x="64" y="46" width="238" height="226" filterUnits="userSpaceOnUse" color-interpolation-filters="sRGB">
<feFlood flood-opacity="0" result="BackgroundImageFix"/>
<feBlend mode="normal" in="SourceGraphic" in2="BackgroundImageFix" result="shape"/>
<feColorMatrix in="SourceAlpha" type="matrix" values="0 0 0 0 0 0 0 0 0 0 0 0 0 0 0 0 0 0 127 0" result="hardAlpha"/>
<feOffset dy="4"/>
<feGaussianBlur stdDeviation="2"/>
<feComposite in2="hardAlpha" operator="arithmetic" k2="-1" k3="1"/>
<feColorMatrix type="matrix" values="0 0 0 0 0 0 0 0 0 0 0 0 0 0 0 0 0 0 0.25 0"/>
<feBlend mode="normal" in2="shape" result="effect1_innerShadow_0_1"/>
</filter>
<filter id="filter2_i_0_1" x="84.0901" y="54" width="197.82" height="197.565" filterUnits="userSpaceOnUse" color-interpolation-filters="sRGB">
<feFlood flood-opacity="0" result="BackgroundImageFix"/>
<feBlend mode="normal" in="SourceGraphic" in2="BackgroundImageFix" result="shape"/>
<feColorMatrix in="SourceAlpha" type="matrix" values="0 0 0 0 0 0 0 0 0 0 0 0 0 0 0 0 0 0 127 0" result="hardAlpha"/>
<feOffset dy="4"/>
<feGaussianBlur stdDeviation="2"/>
<feComposite in2="hardAlpha" operator="arithmetic" k2="-1" k3="1"/>
<feColorMatrix type="matrix" values="0 0 0 0 0 0 0 0 0 0 0 0 0 0 0 0 0 0 0.25 0"/>
<feBlend mode="normal" in2="shape" result="effect1_innerShadow_0_1"/>
</filter>
<filter id="filter3_d_0_1" x="150.312" y="132.375" width="65.375" height="73.625" filterUnits="userSpaceOnUse" color-interpolation-filters="sRGB">
<feFlood flood-opacity="0" result="BackgroundImageFix"/>
<feColorMatrix in="SourceAlpha" type="matrix" values="0 0 0 0 0 0 0 0 0 0 0 0 0 0 0 0 0 0 127 0" result="hardAlpha"/>
<feOffset dy="4"/>
<feGaussianBlur stdDeviation="2"/>
<feColorMatrix type="matrix" values="0 0 0 0 0 0 0 0 0 0 0 0 0 0 0 0 0 0 0.25 0"/>
<feBlend mode="normal" in2="BackgroundImageFix" result="effect1_dropShadow_0_1"/>
<feBlend mode="normal" in="SourceGraphic" in2="effect1_dropShadow_0_1" result="shape"/>
</filter>
<filter id="filter4_i_0_1" x="154.312" y="132.375" width="57.375" height="69.625" filterUnits="userSpaceOnUse" color-interpolation-filters="sRGB">
<feFlood flood-opacity="0" result="BackgroundImageFix"/>
<feBlend mode="normal" in="SourceGraphic" in2="BackgroundImageFix" result="shape"/>
<feColorMatrix in="SourceAlpha" type="matrix" values="0 0 0 0 0 0 0 0 0 0 0 0 0 0 0 0 0 0 127 0" result="hardAlpha"/>
<feOffset dy="4"/>
<feGaussianBlur stdDeviation="2"/>
<feComposite in2="hardAlpha" operator="arithmetic" k2="-1" k3="1"/>
<feColorMatrix type="matrix" values="0 0 0 0 0 0 0 0 0 0 0 0 0 0 0 0 0 0 0.25 0"/>
<feBlend mode="normal" in2="shape" result="effect1_innerShadow_0_1"/>
</filter>
</defs>
</svg>
